<svg id="visual" viewBox="0 0 900 600" width="900" height="600" xmlns="http://www.w3.org/2000/svg" xmlns:xlink="http://www.w3.org/1999/xlink" version="1.1"><rect x="0" y="0" width="900" height="600" fill="#fffbea"></rect><path d="M0 425L16.7 434.8C33.3 444.7 66.7 464.3 100 466.2C133.3 468 166.7 452 200 456.5C233.3 461 266.7 486 300 488.8C333.3 491.7 366.7 472.3 400 460.5C433.3 448.7 466.7 444.3 500 455.8C533.3 467.3 566.7 494.7 600 502.3C633.3 510 666.7 498 700 476.5C733.3 455 766.7 424 800 410.7C833.3 397.3 866.7 401.7 883.3 403.8L900 406L900 601L883.3 601C866.7 601 833.3 601 800 601C766.7 601 733.3 601 700 601C666.7 601 633.3 601 600 601C566.7 601 533.3 601 500 601C466.7 601 433.3 601 400 601C366.7 601 333.3 601 300 601C266.7 601 233.3 601 200 601C166.7 601 133.3 601 100 601C66.7 601 33.3 601 16.7 601L0 601Z" fill="#ffffff" stroke-linecap="round" stroke-linejoin="miter"></path></svg>